:SAMPLES-PER-SECOND 30
:FULLY-SPECIFIED
:DEGREES
880
root  -21.4452 38.5155 0.15722 -42.5397 -80.4756 33.5035
RightUpLeg  -14.0797 1.27478 -10.7289
RightLeg  65.0488 2.45674 5.20238
RightFoot  -0.297414 -0.84224 8.65492
RightToes  -6.98493e-010 0 -3.6325e-017
Spine  11.7945 0.14958 -1.3331
Spine1  8.94073 1.31642 -8.37637
HEad  -2.7236 -0.492479 -2.47236
LeftShoulder1  0.943008 0.560218 -25.8784
LeftArm  -5.81108 -30.1133 -43.8204
LeftForeArm  15.3598 -11.0611 -7.10548
LeftHand  0.00968965 6.31144 4.74735
RightShoulder  0.353727 -2.02705 17.6415
RightArm  5.37831 44.5845 47.5664
RightForeArm  -13.134 23.6207 5.68918
RightHand  -0.570298 5.74018 -6.26381
LeftUpLeg  -7.10419 4.2848 -11.7049
LeftLeg  23.5617 6.86474 3.36032
LeftFoot  -10.6719 0.0232771 7.02977
LeftToes  7.91257e-010 -1.64976e-010 -3.02228e-011
881
root  -22.5495 38.6932 0.164403 -36.9029 -79.5321 27.6669
RightUpLeg  -16.8701 2.69663 -10.6978
RightLeg  58.6458 2.05146 3.19648
RightFoot  -1.74786 -0.591203 6.9447
RightToes  -6.98493e-010 0 -3.6325e-017
Spine  11.6136 -0.224048 -1.61524
Spine1  9.21492 0.826828 -7.52727
HEad  -2.3905 -1.43033 -1.55927
LeftShoulder1  1.09686 -0.0292987 -24.8186
LeftArm  -5.12459 -34.2702 -45.1756
LeftForeArm  14.284 -12.4085 -6.69218
LeftHand  -0.0389755 4.98582 4.73056
RightShoulder  0.355049 -1.98467 17.051
RightArm  4.87236 47.265 46.3943
RightForeArm  -13.6359 23.285 5.63961
RightHand  -0.533142 5.84473 -5.82332
LeftUpLeg  -4.48864 3.86094 -11.0603
LeftLeg  22.7014 5.96039 2.80089
LeftFoot  -12.1175 0.118077 6.65581
LeftToes  7.91257e-010 -1.64976e-010 -3.02228e-011
882
root  -23.6943 38.8098 0.200064 -33.194 -78.4997 23.8426
RightUpLeg  -18.2303 3.05447 -11.1241
RightLeg  49.1139 1.66907 1.73926
RightFoot  -3.38928 -0.560189 7.7017
RightToes  -6.98493e-010 0 -3.6325e-017
Spine  11.5359 -0.684496 -1.78018
Spine1  9.02834 0.319796 -6.99766
HEad  -2.35399 -1.57724 -1.9284
LeftShoulder1  1.16651 -0.3525 -23.9998
LeftArm  -3.65433 -38.3543 -45.884
LeftForeArm  13.3942 -13.6385 -6.546
LeftHand  -0.0286644 5.27947 4.98823
RightShoulder  0.409206 -1.69946 16.1824
RightArm  3.29042 49.1192 45.1629
RightForeArm  -13.1306 23.1773 5.59176
RightHand  -0.523425 5.66027 -5.80661
LeftUpLeg  -1.97114 3.24019 -10.6891
LeftLeg  21.9735 5.43326 2.56061
LeftFoot  -13.6778 0.212365 6.3712
LeftToes  7.91257e-010 -1.64976e-010 -3.02228e-011
883
root  -24.9002 38.8935 0.266605 -30.6414 -77.4651 21.4185
RightUpLeg  -18.3444 1.85328 -11.549
RightLeg  36.9269 1.71181 1.10357
RightFoot  -3.56822 -0.545924 7.66137
RightToes  -6.98493e-010 0 -3.6325e-017
Spine  10.9629 -1.11728 -1.88112
Spine1  9.14032 -0.091924 -6.56971
HEad  -2.52395 -2.47413 -1.38332
LeftShoulder1  1.22808 -0.659546 -23.2051
LeftArm  -2.3117 -41.9803 -46.5339
LeftForeArm  11.8266 -14.9967 -6.2335
LeftHand  -0.0572161 4.59849 5.53399
RightShoulder  0.423538 -1.58871 15.561
RightArm  2.1704 50.9938 43.7897
RightForeArm  -14.6349 23.0843 5.63924
RightHand  -0.58904 5.63788 -6.52021
LeftUpLeg  0.38653 3.22636 -10.3011
LeftLeg  21.2091 4.35847 2.0674
LeftFoot  -15.1555 0.299384 6.23761
LeftToes  7.91257e-010 -1.64976e-010 -3.02228e-011
884
root  -26.1854 38.914 0.373628 -29.8104 -76.5725 20.6832
RightUpLeg  -17.2962 -0.74713 -11.849
RightLeg  23.4415 2.90877 1.1614
RightFoot  -3.44677 -0.593864 8.27366
RightToes  -6.98493e-010 0 -3.6325e-017
Spine  10.6695 -1.44471 -1.99685
Spine1  8.6844 -0.456092 -6.05502
HEad  -2.213 -2.22722 -1.4953
LeftShoulder1  1.27759 -0.900252 -22.7006
LeftArm  -1.11803 -44.8166 -46.9391
LeftForeArm  10.061 -16.3394 -5.89537
LeftHand  -0.0954499 3.72853 5.57477
RightShoulder  0.458177 -1.34477 14.5354
RightArm  0.59677 52.2602 42.3943
RightForeArm  -15.5123 22.9835 5.6539
RightHand  -0.632222 5.12642 -7.27532
LeftUpLeg  2.95005 3.64179 -9.9916
LeftLeg  20.3612 3.21069 1.50783
LeftFoot  -16.6026 0.393838 6.38511
LeftToes  7.91257e-010 -1.64976e-010 -3.02228e-011
885
root  -27.5217 38.8949 0.506223 -30.2044 -76.1418 21.0778
RightUpLeg  -15.8616 -4.57725 -11.4309
RightLeg  11.1982 5.45933 0.759692
RightFoot  -3.9072 -0.667102 9.81531
RightToes  -6.98493e-010 0 -3.6325e-017
Spine  9.80198 -1.53305 -1.60925
Spine1  9.11496 -0.433406 -5.87175
HEad  -2.34697 -2.59071 -1.73666
LeftShoulder1  1.3534 -1.24307 -22.1696
LeftArm  -0.736331 -47.2478 -47.3978
LeftForeArm  9.43749 -17.7029 -5.38971
LeftHand  -0.0990729 3.64411 5.58341
RightShoulder  0.480305 -1.15718 13.6626
RightArm  -1.24126 53.4194 40.7229
RightForeArm  -15.0743 23.0422 5.64375
RightHand  -0.580145 5.96912 -6.242
LeftUpLeg  5.83581 4.36026 -9.60132
LeftLeg  19.2077 2.30924 1.00289
LeftFoot  -17.6934 0.467245 6.49554
LeftToes  7.91257e-010 -1.64976e-010 -3.02228e-011
886
root  -28.9277 38.7899 0.666504 -31.0833 -75.8358 21.4951
RightUpLeg  -14.4787 -9.867 -10.2487
RightLeg  3.62599 7.67609 -0.358188
RightFoot  -3.47453 -0.737313 10.2865
RightToes  -6.98493e-010 0 -3.6325e-017
Spine  9.29652 -1.67908 -0.701391
Spine1  9.60129 -0.383301 -6.15581
HEad  -2.30138 -2.85222 -1.90432
LeftShoulder1  1.35741 -1.34088 -21.6535
LeftArm  -0.0960189 -49.5405 -47.4402
LeftForeArm  7.49464 -18.5863 -5.22331
LeftHand  -0.0945148 3.86129 5.96142
RightShoulder  0.482225 -1.13613 13.5534
RightArm  -1.83097 54.8263 39.0694
RightForeArm  -15.5567 23.2024 5.70273
RightHand  -0.593611 6.17111 -6.2913
LeftUpLeg  9.24246 4.3208 -9.47661
LeftLeg  18.3388 2.0651 1.00792
LeftFoot  -19.2528 0.529097 5.99234
LeftToes  7.91257e-010 -1.64976e-010 -3.02228e-011
887
root  -30.3794 38.5635 0.812704 -30.1691 -75.6304 20.3087
RightUpLeg  -14.2678 -10.1853 -9.79778
RightLeg  2.69356 4.47704 -0.33206
RightFoot  -2.3139 -0.651467 8.34387
RightToes  -6.98493e-010 0 -3.6325e-017
Spine  8.38689 -1.79098 0.157501
Spine1  10.3348 -0.542578 -5.65949
HEad  -2.10633 -2.67575 -2.44388
LeftShoulder1  1.36463 -1.41505 -21.3583
LeftArm  0.0180655 -51.587 -47.4301
LeftForeArm  6.01448 -18.5486 -5.29551
LeftHand  -0.0955378 3.82505 5.92123
RightShoulder  0.488174 -1.02747 12.8348
RightArm  -2.18477 56.1287 37.6749
RightForeArm  -16.4962 23.1937 5.74402
RightHand  -0.625406 5.49419 -6.97093
LeftUpLeg  11.718 3.95537 -8.98946
LeftLeg  19.0071 2.0182 1.17633
LeftFoot  -21.4982 0.579265 5.05465
LeftToes  7.91257e-010 -1.64976e-010 -3.02228e-011
888
root  -31.8271 38.341 0.96908 -26.8839 -76.1747 16.7644
RightUpLeg  -15.5831 -9.62691 -8.41756
RightLeg  7.89819 3.54509 0.264598
RightFoot  2.91016 -0.578213 4.58669
RightToes  -6.98493e-010 0 -3.6325e-017
Spine  7.96205 -1.93624 2.41265
Spine1  10.5475 -0.673115 -5.05549
HEad  -1.48713 -2.2397 -3.07646
LeftShoulder1  1.25091 -1.01102 -21.3182
LeftArm  0.447775 -53.0121 -47.2547
LeftForeArm  4.18525 -18.6627 -5.37594
LeftHand  -0.0722164 4.34787 6.01326
RightShoulder  0.53057 -0.721292 12.0684
RightArm  -2.37285 57.0379 36.8565
RightForeArm  -16.7733 23.0883 5.73372
RightHand  -0.604236 5.86371 -6.54387
LeftUpLeg  13.9327 3.11861 -7.9351
LeftLeg  19.9846 3.24364 1.70517
LeftFoot  -23.4273 0.599824 4.31565
LeftToes  7.91257e-010 -1.64976e-010 -3.02228e-011
889
root  -33.2833 37.9894 1.1086 -21.3793 -76.7884 10.894
RightUpLeg  -17.2051 -8.62768 -7.07989
RightLeg  14.596 3.90752 0.891423
RightFoot  7.97441 -0.806381 5.06543
RightToes  -6.98493e-010 0 -3.6325e-017
Spine  7.93144 -2.23125 5.65258
Spine1  10.5186 -0.590259 -5.61393
HEad  -1.65754 -1.95901 -3.56696
LeftShoulder1  1.28497 -1.17406 -21.0637
LeftArm  0.0833513 -54.3338 -46.4586
LeftForeArm  2.99938 -18.4896 -5.47971
LeftHand  -0.073471 4.32702 6.04663
RightShoulder  0.541869 -0.605918 11.6716
RightArm  -2.94462 57.9727 35.4772
RightForeArm  -16.9965 23.5043 5.83661
RightHand  -0.576395 5.60053 -6.39618
LeftUpLeg  14.7114 3.06799 -5.9738
LeftLeg  24.1487 3.67234 2.13473
LeftFoot  -25.6282 0.505205 2.8779
LeftToes  7.91257e-010 -1.64976e-010 -3.02228e-011
890
root  -34.6728 37.6215 1.2386 -13.7692 -77.376 2.22758
RightUpLeg  -18.5538 -7.4693 -5.15465
RightLeg  22.9288 3.71203 1.4905
RightFoot  5.94968 -0.423859 3.02829
RightToes  -6.98493e-010 0 -3.6325e-017
Spine  9.00017 -2.80658 9.18204
Spine1  10.6272 -0.737158 -5.88263
HEad  -2.27097 -1.13752 -4.39769
LeftShoulder1  1.30569 -1.23333 -21.1596
LeftArm  -1.42346 -55.3834 -45.4393
LeftForeArm  3.36311 -18.6325 -5.32284
LeftHand  -0.067057 4.40418 5.70029
RightShoulder  0.580208 -0.300471 10.9858
RightArm  -3.85011 59.083 34.0517
RightForeArm  -17.4475 23.9251 5.95135
RightHand  -0.585427 5.4672 -6.56362
LeftUpLeg  14.0828 3.96609 -2.5318
LeftLeg  32.3677 1.74688 1.46591
LeftFoot  -26.3805 -0.0898795 -1.94684
LeftToes  7.91257e-010 -1.64976e-010 -3.02228e-011
